# xmcd
#
# Track frame offsets:
#	150
#	13050
#	25655
#	37915
#	51575
#	65427
#	79215
#	92147
#	104872
#	117922
#	131545
#	145162
#	158612
#	172107
#	183657
#	195477
#	210032
#	224652
#	239157
#	253130
#	267630
#	280267
#	295592
#	309647
#	323297
#
# Disc length: 4486 seconds
#
# Revision: 0
# Processed by: cddbd v1.5.1PL0 Copyright (c) Steve Scherf et al.
# Submitted via: dBpowerAMP V4.0
#
DISCID=7a118419
DTITLE=Various Artist - dountry blues collector's items (document records)
DYEAR=1900
DGENRE=Blues
TTITLE0=ed andrews - barrel house blues
TTITLE1=ed andrews - time ain't gonna make me stay
TTITLE2=kid brown - bo-lita
TTITLE3=emery glen - back door blues
TTITLE4=emery glen - two ways to texas
TTITLE5=emery glen - fifth street blues
TTITLE6=emery glen - blue blazes blues
TTITLE7=sammy brown - barrel house blues
TTITLE8=sammy brown - the jockey blues
TTITLE9=lewis black - rock island blues
TTITLE10=lewis black - gravel camp blues
TTITLE11=lewis black - corn liquor blues 
TTITLE12=lewis black - spanish blues
TTITLE13=johnny head - fare thee blues - part 1
TTITLE14=johnny head - fare thee blues - part 2
TTITLE15=mooch richardson - t and t blues
TTITLE16=mooch richardson - mooch richardson's low down barrel house blues part 1
TTITLE17=mooch richardson - mooch richardson's low down barrel house blues part 2
TTITLE18=mooch richardson - helena blues
TTITLE19=mooch richardson - big kate adams blues
TTITLE20=mooch richardson - burying ground blues
TTITLE21=tc johnson and blue coat tom nelson - j.c. johnson's blues
TTITLE22=tc johnson and blue coat tom nelson - blue coat blues
TTITLE23=tc johnson, blue coat tom nelson and porkchop - g. burns is gonna rise again
TTITLE24=tc johnson, blue coat tom nelson and porkchop - in the mornin'
EXTD=
EXTT0=
EXTT1=
EXTT2=
EXTT3=
EXTT4=
EXTT5=
EXTT6=
EXTT7=
EXTT8=
EXTT9=
EXTT10=
EXTT11=
EXTT12=
EXTT13=
EXTT14=
EXTT15=
EXTT16=
EXTT17=
EXTT18=
EXTT19=
EXTT20=
EXTT21=
EXTT22=
EXTT23=
EXTT24=
PLAYORDER=
